<?xml version="1.0" encoding="UTF-8" standalone="no"?>
<!-- Created with Inkscape (http://www.inkscape.org/) -->

<svg
   version="1.1"
   id="svg10998"
   width="1998.4993"
   height="121.38875"
   viewBox="0 0 1998.4993 121.38875"
   sodipodi:docname="Artboard 1bgcontainer2.svg"
   inkscape:version="1.2 (1:1.2.1+202207142221+cd75a1ee6d)"
   xmlns:inkscape="http://www.inkscape.org/namespaces/inkscape"
   xmlns:sodipodi="http://sodipodi.sourceforge.net/DTD/sodipodi-0.dtd"
   xmlns="http://www.w3.org/2000/svg"
   xmlns:svg="http://www.w3.org/2000/svg">
  <defs
     id="defs11002" />
  <sodipodi:namedview
     id="namedview11000"
     pagecolor="#ffffff"
     bordercolor="#000000"
     borderopacity="0.25"
     inkscape:showpageshadow="2"
     inkscape:pageopacity="0.0"
     inkscape:pagecheckerboard="0"
     inkscape:deskcolor="#d1d1d1"
     showgrid="false"
     inkscape:zoom="0.655"
     inkscape:cx="695.41985"
     inkscape:cy="-78.625954"
     inkscape:window-width="1846"
     inkscape:window-height="1016"
     inkscape:window-x="0"
     inkscape:window-y="0"
     inkscape:window-maximized="1"
     inkscape:current-layer="g11004" />
  <g
     inkscape:groupmode="layer"
     inkscape:label="Image"
     id="g11004"
     transform="translate(-0.17891183,-279.86363)">
    <path
       style="fill:#e2b876;fill-opacity:1;stroke-width:0"
       d="m 0.17891183,356.74019 v -44.5122 L 40.255249,311.74726 c 22.041984,-0.2644 48.61295,-0.78745 59.04659,-1.16233 25.093491,-0.90161 77.203161,-4.89791 92.497571,-7.09366 6.70796,-0.96303 13.14336,-1.7549 14.3009,-1.75973 3.22926,-0.0134 30.60037,-5.38278 38.5258,-7.55752 10.46631,-2.87198 35.32153,-5.45791 57.07952,-5.93856 44.40342,-0.9809 132.04131,5.73944 208.1787,15.96378 9.53644,1.28063 18.12423,2.33039 19.08397,2.33279 0.95972,0.002 18.57702,2.49565 39.14954,5.54054 l 37.40458,5.53616 10.68702,-0.81567 c 5.87787,-0.44862 18.9313,-1.56672 29.00764,-2.48466 10.07633,-0.91795 25.68128,-2.25346 34.67765,-2.9678 8.99636,-0.71435 24.79789,-2.07818 35.1145,-3.03076 37.89119,-3.49864 67.82478,-6.12475 76.00937,-6.66839 4.61832,-0.30677 12.8626,-0.97138 18.32061,-1.47692 10.94257,-1.01354 16.00126,-0.70857 59.54199,3.58966 11.33588,1.11905 23.35878,2.2219 26.71756,2.45079 3.35877,0.22889 15.38168,1.30685 26.71755,2.39548 11.33588,1.08863 27.65268,2.61202 36.25955,3.38532 39.41565,3.54136 48.29134,4.35091 68.32054,6.23145 11.7557,1.10375 33.397,3.10006 48.0916,4.43626 28.1219,2.55712 67.9868,6.23159 94.2951,8.69144 16.5726,1.54955 31.4092,1.52514 74.4072,-0.12235 9.2367,-0.35391 28.249,-0.96787 42.2498,-1.36435 14.0007,-0.39648 38.7335,-1.49959 54.9618,-2.45136 16.2283,-0.95178 36.0327,-2.01282 44.0098,-2.35787 7.9771,-0.34505 24.1221,-1.3931 35.8778,-2.32901 11.7558,-0.93592 24.8092,-1.88851 29.0077,-2.11689 19.6121,-1.06679 91.4994,-8.55597 119.8473,-12.48562 16.6679,-2.31054 22.0493,-3.14312 43.5115,-6.7318 12.4019,-2.07373 39.1653,-7.92074 50.3816,-11.0069 29.0393,-7.99013 42.7788,-9.96243 72.8719,-10.46079 38.1397,-0.63161 82.4423,4.23088 137.8152,15.12612 14.4711,2.84737 57.1139,12.79662 71.1358,16.59719 7.7307,2.09534 14.2548,3.80971 14.4982,3.80971 0.2434,0 8.8997,2.43447 19.2363,5.40995 l 18.7938,5.40994 0.3946,37.49075 0.3948,37.49073 H 999.42853 0.17891183 Z"
       id="path11647" />
  </g>
</svg>
