<?xml version="1.0" encoding="UTF-8" standalone="no"?>
<!-- Created with Inkscape (http://www.inkscape.org/) -->

<svg
   version="1.1"
   id="svg4854"
   width="1998.4731"
   height="139.73035"
   viewBox="0 0 1998.4731 139.73035"
   sodipodi:docname="Artboard 1bgcontainerblue.svg"
   inkscape:version="1.2 (1:1.2.1+202207142221+cd75a1ee6d)"
   inkscape:export-filename="Artboard 1bgcontainer3.png"
   inkscape:export-xdpi="96"
   inkscape:export-ydpi="96"
   xmlns:inkscape="http://www.inkscape.org/namespaces/inkscape"
   xmlns:sodipodi="http://sodipodi.sourceforge.net/DTD/sodipodi-0.dtd"
   xmlns="http://www.w3.org/2000/svg"
   xmlns:svg="http://www.w3.org/2000/svg">
  <defs
     id="defs4858" />
  <sodipodi:namedview
     id="namedview4856"
     pagecolor="#ffffff"
     bordercolor="#000000"
     borderopacity="0.25"
     inkscape:showpageshadow="2"
     inkscape:pageopacity="0.0"
     inkscape:pagecheckerboard="0"
     inkscape:deskcolor="#d1d1d1"
     showgrid="false"
     inkscape:zoom="5.24"
     inkscape:cx="1435.687"
     inkscape:cy="28.912214"
     inkscape:window-width="1846"
     inkscape:window-height="1016"
     inkscape:window-x="0"
     inkscape:window-y="0"
     inkscape:window-maximized="1"
     inkscape:current-layer="g4860" />
  <g
     inkscape:groupmode="layer"
     inkscape:label="Image"
     id="g4860"
     transform="translate(-2.4510973,-260.74674)">
    <path
       style="display:inline;fill:#d2faff;fill-opacity:1;stroke:none;stroke-width:0;stroke-dasharray:none"
       d="m 2.4510973,336.58336 v -63.89372 l 3.4351145,-0.45885 c 10.0398962,-1.3411 67.6920262,4.37611 82.2369992,3.53164 9.236641,-0.53626 59.922469,10.17278 73.777429,9.21983 35.79354,-2.46188 124.90392,-25.10147 162.78919,-23.07128 55.42948,2.97035 107.76533,7.5479 150.47104,13.16094 10.18121,1.33817 27.38293,-4.13985 31.05669,-3.84435 3.67374,0.29551 22.10116,-3.85573 28.79237,-2.94317 6.69119,0.91256 30.07143,0.15403 41.85352,1.47052 11.78208,1.3165 40.62879,11.50464 49.44559,12.49764 79.69957,8.97628 74.97536,12.2599 118.67248,16.52255 72.70664,7.09252 119.08906,16.70268 137.37167,16.67739 5.94301,-0.008 10.08577,-0.49264 46.81547,-5.47415 11.33587,-1.53745 30.91603,-4.18063 43.51145,-5.87374 12.59542,-1.69311 30.11449,-4.15526 38.93129,-5.47144 8.8168,-1.31618 18.4351,-2.6438 21.374,-2.95027 2.9389,-0.30647 12.9008,-1.6295 22.1374,-2.94008 22.8489,-3.242 56.9416,-8.04128 71.7557,-10.10114 6.7176,-0.93407 16.6794,-2.32218 22.1374,-3.08471 77.7676,-10.86475 76.0239,-10.65726 84.4086,-10.04389 9.6621,0.7068 24.8803,-0.0955 33.4767,3.1584 3.7787,1.43026 32.265,4.07152 35.1208,6.38871 3.8387,3.11469 22.7925,8.365 29.6114,10.35901 37.0015,10.82017 33.5774,23.49947 47.4303,23.49947 8.8979,0 15.2956,-0.66715 28.4992,-2.97186 20.9867,-3.6633 43.8736,-7.56911 100.995,-17.23551 7.5573,-1.27888 16.4886,-2.73783 19.8474,-3.2421 3.3587,-0.50428 9.8855,-2.27926 14.5038,-3.9444 34.1299,-12.3056 80.8218,-18.4073 140.458,-18.35508 66.0652,0.0578 124.7817,7.18652 175.4688,21.3034 26.1833,7.29227 50.8955,17.25505 76.4807,30.83316 16.8656,8.9506 20.6148,10.35369 32.3418,12.1035 7.058,1.05312 22.7304,0.84036 29.8308,-0.40495 l 3.4351,-0.60247 v 35.03737 35.03736 H 1001.6877 2.4510973 Z"
       id="path5037"
       sodipodi:nodetypes="ccsssssssssscssssssssssssssssssssscccccc" />
  </g>
</svg>
